# xmcd
#
# Track frame offsets: 
#        150
#        25062
#        51006
#        70669
#        94832
#        118893
#        137791
#        156240
#        186175
#        199665
#        233257
#        248748
#        267882
#        285963
#        305726
#        333785
#
# Disc length: 4654 seconds
#
# Revision: 0
# Processed by: cddbd v1.4PL0 Copyright (c) Steve Scherf et al.
# Submitted via: ExactAudioCopy v0.90b4
#
DISCID=d7122c10
DTITLE=Paul Cebar and the Milwaukeeans - suchamuch
DYEAR=2001
DGENRE=
TTITLE0=dance me to the end of love
TTITLE1=buid it on up
TTITLE2=she's such a much
TTITLE3=you make me feel so
TTITLE4=second that emotion
TTITLE5=one step up
TTITLE6=twice little sixteen
TTITLE7=knife and a rose
TTITLE8=that's no big thing
TTITLE9=check your bucket
TTITLE10=going back to new orleans
TTITLE11=lingering
TTITLE12=blood and water
TTITLE13=please don't tell me more
TTITLE14=jump in the line
TTITLE15=romance in the dark
EXTD=
EXTT0=
EXTT1=
EXTT2=
EXTT3=
EXTT4=
EXTT5=
EXTT6=
EXTT7=
EXTT8=
EXTT9=
EXTT10=
EXTT11=
EXTT12=
EXTT13=
EXTT14=
EXTT15=
PLAYORDER=
